<svg xmlns="http://www.w3.org/2000/svg" width="24" height="24" fill="#ffffff" xmlns:v="https://vecta.io/nano"><path d="M9.5 15.015c4.067 0 7.5.669 7.5 3.254S13.545 21.5 9.5 21.5c-4.067 0-7.5-.67-7.5-3.254s3.454-3.231 7.5-3.231zM18.999 7.5c.496 0 .899.409.899.912h0v1.176h1.203c.495 0 .899.409.899.912s-.404.912-.899.912h0-1.203v1.177c0 .502-.403.912-.899.912s-.899-.409-.899-.912h0v-1.177h-1.201c-.496 0-.899-.409-.899-.912s.403-.912.899-.912h0H18.1V8.412c0-.502.404-.912.899-.912zM9.5 2.5c2.755 0 4.963 2.237 4.963 5.027s-2.208 5.027-4.963 5.027-4.963-2.237-4.963-5.027S6.745 2.5 9.5 2.5z"/></svg>