<svg xmlns="http://www.w3.org/2000/svg" fill="#ffffff" width="24" height="24" xmlns:v="https://vecta.io/nano"><path d="M18.939 8.697c.199 0 .38.087.523.234.133.157.2.352.181.558 0 .068-.533 6.808-.837 9.645-.191 1.741-1.313 2.798-2.996 2.827L12.004 22c-1.323 0-2.616-.01-3.872-.039-1.627-.039-2.75-1.115-2.931-2.827l-.846-9.645a.79.79 0 0 1 .191-.558c.132-.147.323-.234.523-.234h13.871zM14.065 2c.884 0 1.674.617 1.902 1.497h0l.163.73a1.28 1.28 0 0 0 1.241 1.016h0 2.916c.389 0 .713.323.713.734h0v.38a.73.73 0 0 1-.713.734h0H3.714A.73.73 0 0 1 3 6.357h0v-.38c0-.411.324-.734.714-.734h0H6.63c.592 0 1.108-.421 1.241-1.015h0l.153-.682C8.261 2.617 9.041 2 9.935 2h0z"/></svg>