<svg xmlns="http://www.w3.org/2000/svg" fill="#ffffff" width="24" height="24" xmlns:v="https://vecta.io/nano"><path d="M16.665 2.01c1.439-.09 2.857.41 3.926 1.389a5.38 5.38 0 0 1 1.399 3.936h0v9.33c.09 1.449-.42 2.867-1.389 3.936-1.069.979-2.497 1.478-3.936 1.389h0-9.33a5.33 5.33 0 0 1-3.936-1.389 5.33 5.33 0 0 1-1.389-3.936h0v-9.33a5.33 5.33 0 0 1 1.389-3.936A5.33 5.33 0 0 1 7.335 2.01h0zm-.26 4.565a1.58 1.58 0 0 0-2.238 0h0l-.669.679c-.1.1-.1.27 0 .37l.055.054.246.244.498.496.604.604.216.22c.11.12.18.28.18.46a.66.66 0 0 1-.659.659c-.17 0-.33-.07-.44-.18h0L12.53 8.524c-.08-.08-.22-.08-.3 0h0l-4.765 4.765a1.8 1.8 0 0 0-.529 1.239h0l-.06 2.368c0 .13.04.25.13.34s.21.14.34.14h0 2.348c.48 0 .939-.19 1.289-.529h0l6.723-6.743c.609-.619.609-1.618 0-2.228h0z"/></svg>