<svg xmlns="http://www.w3.org/2000/svg" fill="#3686ff" width="24" height="24" xmlns:v="https://vecta.io/nano"><path d="M9.135 20.773v-3.058a1.42 1.42 0 0 1 1.424-1.413h2.874a1.43 1.43 0 0 1 1.007.414 1.41 1.41 0 0 1 .417.999v3.058c-.002.325.126.637.356.867a1.23 1.23 0 0 0 .871.36h1.961a3.46 3.46 0 0 0 2.443-.999 3.41 3.41 0 0 0 1.013-2.423V9.867c0-.734-.328-1.431-.895-1.902l-6.671-5.289a3.1 3.1 0 0 0-3.949.071L3.467 7.965c-.594.457-.949 1.156-.967 1.902v8.702C2.5 20.464 4.047 22 5.956 22h1.916a1.23 1.23 0 0 0 1.236-1.218l.027-.009z"/></svg>