<svg xmlns="http://www.w3.org/2000/svg" width="24" height="24" xmlns:v="https://vecta.io/nano"><path d="M16.939 3c1.341 0 2.631.53 3.58 1.481S22 6.71 22 8.05h0v7.9A5.06 5.06 0 0 1 16.939 21h0H7.06C4.269 21 2 18.74 2 15.95h0v-7.9A5.05 5.05 0 0 1 7.06 3h0zm1.131 5.2a.76.76 0 0 0-.561.2h0L13 12c-.58.481-1.411.481-2 0h0L6.5 8.4c-.311-.23-.741-.2-1 .07-.27.27-.3.7-.071 1h0l.131.13 4.55 3.55c.56.44 1.239.68 1.95.68a3.17 3.17 0 0 0 1.959-.68h0l4.511-3.61.08-.08c.239-.29.239-.71-.011-1a.84.84 0 0 0-.529-.26z"/></svg>