<svg xmlns="http://www.w3.org/2000/svg" width="24" height="24" xmlns:v="https://vecta.io/nano"><path d="M9.963 19.228c.5-.106 3.546-.106 4.046 0 .427.099.89.329.89.833-.025.479-.306.904-.695 1.174-.504.393-1.095.642-1.713.731-.342.044-.678.045-1.008 0a3.62 3.62 0 0 1-1.713-.732c-.39-.269-.671-.694-.696-1.173 0-.504.462-.734.89-.833zM12.045 2c2.08 0 4.205.987 5.467 2.625.819 1.054 1.195 2.108 1.195 3.746h0v.426c0 1.256.332 1.996 1.062 2.849.554.628.73 1.435.73 2.31s-.287 1.704-.863 2.378c-.753.808-1.816 1.323-2.9 1.413L12 17.994c-1.594 0-3.165-.067-4.737-.247-1.085-.09-2.148-.605-2.9-1.413-.575-.674-.864-1.504-.864-2.378s.178-1.682.73-2.31c.753-.853 1.063-1.593 1.063-2.849h0V8.37c0-1.682.419-2.782 1.283-3.858C7.861 2.942 9.919 2 11.956 2h0z"/></svg>